<?xml version="1.0" encoding="UTF-8" standalone="no"?>
<svg xmlns:dc="http://purl.org/dc/elements/1.1/"
   xmlns:cc="http://creativecommons.org/ns#"
   xmlns:rdf="http://www.w3.org/1999/02/22-rdf-syntax-ns#"
   xmlns:svg="http://www.w3.org/2000/svg"
   xmlns="http://www.w3.org/2000/svg" version="1.2" viewBox="0 0 600 272" height="272" width="600">
   <metadata id="metadata89">
      <rdf:RDF>
         <cc:Work rdf:about="">
            <dc:format>image/svg+xml</dc:format>
            <dc:type rdf:resource="http://purl.org/dc/dcmitype/StillImage" />
            <dc:title>University of Cincinnati Logotype</dc:title>
         </cc:Work>
      </rdf:RDF>
   </metadata>
   <defs id="defs20">
      <clipPath id="clip1"><path d="m 66,195 h 63 v 73.60937 H 66 Z m 0,0" /></clipPath>
      <clipPath id="clip2"><path d="m 163,196 h 58 v 72.60937 h -58 z m 0,0" /></clipPath>
      <clipPath id="clip3"><path d="m 232,195 h 63 v 73.60937 h -63 z m 0,0" /></clipPath>
      <clipPath id="clip4"><path d="m 329,196 h 58 v 72.60937 h -58 z m 0,0" /></clipPath>
      <clipPath id="clip5"><path d="m 402,196 h 59 v 72.60937 h -59 z m 0,0" /></clipPath>
      <clipPath id="clip6"><path d="m 588,197 h 9.48047 v 71 H 588 Z m 0,0" /></clipPath>
   </defs>
   <g transform="translate(1.26172,1.695315)">
      <g style="fill:#ffffff;fill-opacity:0.8;fill-rule:nonzero;stroke:none">
         <path d="m 24.140625,139.24219 0.277344,-1.92578 7.039062,0.16406 6.433594,-0.16406 0.273437,1.92578 -4.671874,0.71484 v 22.4375 c 0,7.14844 -2.914063,11.92969 -13.859376,14.46094 -10.832031,0 -14.683593,-5.82813 -14.683593,-14.57422 V 139.95703 L 0,139.24219 l 0.273438,-1.92578 7.589843,0.16406 7.535157,-0.16406 0.273437,1.92578 L 11,139.95703 v 23.15234 c 0,6.81641 2.914062,10.72266 9.183594,10.72266 5.71875,0 8.90625,-3.84766 8.90625,-10.88672 v -22.98828 l -4.949219,-0.71484" />
         <path d="m 46.316406,175.75781 -6.328125,0.16406 -0.273437,-1.92578 3.851562,-0.55078 V 153.375 l -3.851562,0.32812 -0.273438,-1.92578 6.597656,-1.70312 2.367188,-0.16406 0.273438,4.61718 8.136718,-5.33203 c 7.039063,0 8.195313,2.36328 8.195313,8.96485 v 15.28515 l 4.179687,0.55078 -0.273437,1.92578 -6.324219,-0.16406 -5.28125,0.16406 -0.273438,-1.92578 2.75,-0.55078 v -15.72656 c 0,-2.85938 -1.265624,-4.125 -3.632812,-4.125 -1.921875,0 -3.847656,1.21094 -5.71875,2.47656 l -1.648438,1.09766 v 16.27734 l 3.023438,0.55078 -0.273438,1.92578 -5.222656,-0.16406" />
         <path d="m 76.894531,137.92187 3.960938,-0.27343 1.539062,0.27343 0.273438,3.07813 -0.605469,2.64062 -3.902344,0.33204 -1.484375,-0.33204 -0.332031,-3.07812 z m 2.75,37.83594 -6.324219,0.16406 -0.273437,-1.92578 3.847656,-0.55078 V 153.375 l -3.847656,0.32812 -0.277344,-1.92578 6.601563,-1.70312 2.746094,-0.21875 v 23.58984 l 4.125,0.55078 -0.273438,1.92578 -6.324219,-0.16406" />
         <path d="m 102.5625,172.34766 6.65234,-19.90625 -2.52734,-0.55079 0.27344,-1.92578 4.83984,0.16407 4.5625,-0.16407 0.27735,1.92578 -3.51954,0.55079 -9.01953,22.60156 -4.01562,1.64844 -9.566409,-24.25 -3.410156,-0.55079 0.273437,-1.92578 6.324219,0.16407 5.773438,-0.16407 0.277343,1.92578 -3.628906,0.55079 5.992184,16.11328 0.44141,3.79297" />
         <path d="m 134.32812,159.09375 c 0,-4.23438 -0.82421,-7.14844 -5.05859,-7.14844 -3.35547,0 -5.5,3.13281 -5.9375,7.69922 z m -11.05078,2.75 c 0,6.26953 3.35157,10.72266 9.12891,10.72266 2.19922,0 4.83594,-1.04297 6.87109,-2.3086 l 0.88282,2.08985 c -2.64063,1.8125 -6.10547,3.35156 -9.625,4.34375 -6.65235,0 -12.64844,-4.73047 -12.64844,-13.36329 0,-8.13671 4.89453,-12.48437 12.42969,-14.13281 7.25781,0 9.73437,4.56641 9.73437,10.33594 v 2.3125 h -16.77344" />
         <path d="m 152.60156,157.16797 6.26953,-7.69922 h 4.39844 v 5.5 h -4.07031 c -1.32031,0.27344 -3.73828,2.08984 -5.22266,3.90625 l -1.10156,1.32031 v 13.08594 l 5.77344,0.55078 -0.27344,2.08984 -7.97266,-0.16406 -6.16015,0.16406 -0.27344,-1.92578 3.84766,-0.55078 V 153.375 l -3.84766,0.32812 -0.27734,-1.92578 6.60156,-1.70312 2.19922,-0.16406 0.10937,7.25781" />
         <path d="m 180.99609,153.10156 c -0.55078,-0.33203 -2.19922,-1.21094 -4.17968,-1.21094 -2.14454,0 -4.17969,1.15625 -4.17969,3.24219 0,1.76172 1.375,2.85938 3.84765,4.125 l 4.23829,2.14453 c 3.68359,1.8711 5.16796,3.96094 5.16796,7.09375 0,4.94922 -4.01562,6.82032 -10.33984,8.19532 -3.35547,0 -6.92969,-1.64844 -8.35937,-2.47266 l -1.04297,-6.21484 h 3.51953 l 1.86719,4.5625 c 1.15625,0.76953 2.75,1.375 4.51171,1.375 2.91407,0 4.39844,-1.8711 4.39844,-4.17969 0,-2.14453 -1.15625,-3.07813 -4.01172,-4.5625 l -4.34765,-2.25391 c -2.36328,-1.21094 -4.61719,-3.30078 -4.61719,-6.3789 0,-3.85157 3.57422,-5.9961 9.95312,-7.3711 2.96875,0 6.16016,1.32031 7.75391,2.47656 v 5.4961 h -2.91406 l -1.26563,-4.06641" />
         <path d="m 193.80859,137.92187 3.95703,-0.27343 1.53907,0.27343 0.27734,3.07813 -0.60547,2.64062 -3.90625,0.33204 -1.48437,-0.33204 -0.32813,-3.07812 z m 2.7461,37.83594 -6.32422,0.16406 -0.27344,-1.92578 3.85156,-0.55078 V 153.375 l -3.85156,0.32812 -0.27344,-1.92578 6.59766,-1.70312 2.75,-0.21875 v 23.58984 l 4.125,0.55078 -0.27734,1.92578 -6.32422,-0.16406" />
         <path d="m 204.01953,153.15234 v -0.93359 l 1.92578,-1.92188 h 3.57422 v -3.57421 l 3.57422,-3.57813 h 1.42969 v 7.53516 h 8.30468 v 2.47265 h -8.25 v 16.11719 c 0,1.59375 0.60547,3.29688 2.91407,3.29688 1.59765,0 2.80468,-0.55079 4.34765,-1.32032 l 0.9336,1.8711 -6.4336,3.57422 c -6.16015,0 -6.98437,-2.19922 -6.98437,-7.14844 v -16.39063 h -5.33594" />
         <path d="m 230,188.78906 v -5.5 h 4.73047 l 5.44531,-8.30078 -2.19922,0.66016 -8.96484,-23.20703 -3.41016,-0.55079 0.27735,-1.92578 6.32031,0.16407 5.77734,-0.16407 0.27344,1.92578 -3.62891,0.55079 5.82813,16.11328 0.4414,3.79297 6.54297,-19.90625 -2.52734,-0.55079 0.27344,-1.92578 4.83984,0.16407 4.5625,-0.16407 0.27734,1.92578 -3.51953,0.55079 -8.63672,22.49218 -6.15625,13.85547 H 230" />
         <path d="m 285.55078,173.99609 c 4.39844,0 6.65234,-4.50781 6.65234,-10.44922 0,-6.98046 -3.35546,-11.65625 -8.14062,-11.65625 -4.45313,0 -6.65234,4.50782 -6.65234,10.50391 0,6.26563 3.24218,11.60156 8.14062,11.60156 z m 12.15234,-11.60156 c 0,8.19141 -5.0039,12.92188 -13.52734,14.29688 -7.31641,0 -12.26562,-5.66407 -12.26562,-13.14454 0,-8.24609 5.0039,-12.92187 13.52734,-14.35156 7.31641,0 12.26562,5.71875 12.26562,13.19922" />
         <path d="m 310.41016,150.57031 h 6.87109 v 2.58203 h -6.87109 v 20.29297 l 6.32421,0.38672 -0.27734,2.08984 -8.52344,-0.16406 -6.32422,0.16406 -0.27343,-1.92578 3.84765,-0.55078 v -20.29297 h -4.83984 v -0.93359 l 1.65234,-1.92188 h 3.1875 v -0.55078 c 0,-3.30078 1.04688,-5.44531 3.02735,-7.69922 l 4.61718,-5.22656 h 6.92969 v 4.40235 h -7.14844 l -1.04687,1.48437 c -0.76953,1.04297 -1.15234,2.64063 -1.15234,6.21484 v 1.64844" />
         <g style="clip-rule:nonzero" clip-path="url(#clip1)"><path d="m 66.28125,232.10937 c 0,-21.70312 15.203125,-36.5039 37.40234,-36.5039 9.40235,0 17.40235,2.5 24.60157,7.80078 l -5.5,7.80078 c -5.89844,-4.19922 -12.40235,-6.40234 -19.40235,-6.40234 -16.10156,0 -27.300779,11.10156 -27.300779,27.30468 0,16.19922 11.199219,27.30079 27.300779,27.30079 7,0 13.50391,-2.19922 19.40235,-6.40235 l 5.5,7.80078 c -7.19922,5.30078 -15.19922,7.80078 -24.60157,7.80078 -22.199215,0 -37.40234,-14.80078 -37.40234,-36.5" /></g>
         <path d="m 147.18359,267.10937 h -9 v -70.0039 h 9 v 70.0039" />
         <g style="clip-rule:nonzero" clip-path="url(#clip2)"><path d="m 206.59375,241.40625 c 2.39844,2.40234 4.59766,5.60156 5.5,7.80078 l 0.39844,-0.0977 c -0.59766,-2.69921 -1,-6.80078 -1,-12.60156 v -39.40234 h 9 v 71.0039 h -0.79688 l -42.70312,-45.30078 c -2.30078,-2.40234 -4.5,-5.60156 -5.5,-7.80078 l -0.30078,0.0977 c 0.59765,2.70312 0.89843,6.80078 0.89843,12.5039 v 39.5 h -9 v -71.0039 h 0.90235 l 42.60156,45.30078" /></g>
         <g style="clip-rule:nonzero" clip-path="url(#clip3)"><path d="m 232.60937,232.10937 c 0,-21.70312 15.19922,-36.5039 37.40235,-36.5039 9.39844,0 17.39844,2.5 24.60156,7.80078 l -5.5,7.80078 c -5.90234,-4.19922 -12.40234,-6.40234 -19.40234,-6.40234 -16.10157,0 -27.30078,11.10156 -27.30078,27.30468 0,16.19922 11.19921,27.30079 27.30078,27.30079 7,0 13.5,-2.19922 19.40234,-6.40235 l 5.5,7.80078 c -7.20312,5.30078 -15.20312,7.80078 -24.60156,7.80078 -22.20313,0 -37.40235,-14.80078 -37.40235,-36.5" /></g>
         <path d="m 313.51172,267.10937 h -9.00391 v -70.0039 h 9.00391 v 70.0039" />
         <g style="clip-rule:nonzero" clip-path="url(#clip4)"><path d="m 372.92187,241.40625 c 2.39844,2.40234 4.59766,5.60156 5.5,7.80078 l 0.39844,-0.0977 c -0.59765,-2.69921 -1,-6.80078 -1,-12.60156 v -39.40234 h 9 v 71.0039 h -0.80078 l -42.70312,-45.30078 c -2.29688,-2.40234 -4.5,-5.60156 -5.5,-7.80078 l -0.29688,0.0977 c 0.59766,2.70312 0.89844,6.80078 0.89844,12.5039 v 39.5 h -9 v -71.0039 h 0.89844 l 42.60546,45.30078" /></g>
         <g style="clip-rule:nonzero" clip-path="url(#clip5)"><path d="m 446.4375,241.40625 c 2.40234,2.40234 4.60156,5.60156 5.50391,7.80078 l 0.39843,-0.0977 c -0.60156,-2.69921 -1,-6.80078 -1,-12.60156 v -39.40234 h 9 v 71.0039 h -0.80078 l -42.69922,-45.30078 c -2.30078,-2.40234 -4.5039,-5.60156 -5.5039,-7.80078 l -0.30078,0.0977 c 0.60156,2.70312 0.90234,6.80078 0.90234,12.5039 v 39.5 h -9 v -71.0039 h 0.89844 l 42.60156,45.30078" /></g>
         <path d="m 496.07812,239.80859 h 12.60157 c 3.09765,0 4.69922,0.0977 5.59765,0.19922 l 0.10157,-0.10156 c -0.80079,-1 -1.80079,-2.59766 -3.10157,-5.69922 l -6.19922,-14.60156 c -1.40234,-3.59766 -2.30078,-6.39844 -2.5,-8.19922 h -0.40234 c -0.19922,1.80078 -1.09766,4.60156 -2.5,8.19922 l -6.19922,14.60156 c -1.30078,3.10156 -2.30078,4.69922 -3.10156,5.69922 l 0.10156,0.10156 c 0.89844,-0.10156 2.5,-0.19922 5.60156,-0.19922 z m 5.80079,-44.20312 h 1 l 32.69921,71.5039 h -10.09765 l -8.70313,-19.60156 h -28.80078 l -8.69922,19.60156 h -10.10156 l 32.70313,-71.5039" />
         <path d="m 579.78516,205.70703 h -17.89844 c -1.19922,0 -1.90235,0 -2.60156,-0.30078 l -0.0977,0.19922 c 0.19922,0.5 0.29687,1.30078 0.29687,2.40234 v 59.10156 h -9 v -59.10156 c 0,-1.10156 0.10157,-1.90234 0.30079,-2.40234 l -0.19922,-0.19922 c -0.69922,0.30078 -1.30078,0.30078 -2.5,0.30078 h -18 v -8.60156 h 49.69922 v 8.60156" />
         <g style="clip-rule:nonzero" clip-path="url(#clip6)"><path d="m 597.47656,267.10937 h -9 v -70.0039 h 9 v 70.0039" /></g>
      </g>
      <g style="fill:#d11c2b;fill-opacity:1;fill-rule:nonzero;stroke:none">
         <path d="M 460.31641,0.0507812 H 426.69922 V 9.859375 h 33.61719 V 0.0507812" />
         <path d="m 401.86328,95.304688 c 0,-26.765626 15.64844,-48.410157 38.76563,-60.546876 V 21.605469 c -33.22266,10.878906 -57.04688,38.964843 -57.04688,73.699219 0,17.179692 4.48047,30.601562 12.28125,42.621092 -20.54297,-3.60937 -29.39453,-17.9414 -29.39453,-42.621092 V 0 h -36.86328 v 9.808594 h 17.61719 v 85.496094 c 0,34.257812 22.32812,52.046872 56.3125,52.609372 13,14.44922 31.39453,24.53516 52.28906,27.51172 1.64844,0.24609 3.21875,0.41406 4.52344,0.52734 v -9.74218 c -1.6836,-0.28907 -2.84766,-0.5625 -2.84766,-0.5625 -32.02344,-8.15235 -55.63672,-35.40625 -55.63672,-70.343752" />
         <path d="M 479.58984,95.308594 V 26.335938 c 22.73438,0 36.3711,13.523437 37.10547,29.023437 l 8.45703,1.664063 5.92188,-34.503907 -10.06641,-1.960937 -1.23047,7.363281 c -18.16015,-9.136719 -33.39843,-10.789063 -48.53906,-10.789063 -3.71094,0 -7.36719,0.21875 -10.96484,0.648438 l 0.0742,77.527344 c 0,15.078126 -2.17969,23.976566 -9.89844,33.464846 -8.48828,-9.36719 -9.83203,-20.00781 -9.83203,-33.464846 0,-7.171875 0.0156,-41.285156 0.0156,-41.285156 -11.26953,10.898437 -18.3164,24.441406 -18.3164,41.285156 0,35.238276 27.21093,62.753906 60.41796,62.753906 11.39844,0 24.54297,-2.78516 34.13282,-9.30859 l -2.41797,-3.61329 c -12.94531,6.60938 -39.22656,8.14454 -55.28516,-6.88281 13.57422,-10.01953 20.42578,-22.84375 20.42578,-42.949216" />
      </g>
   </g>
</svg>
